<svg xmlns="http://www.w3.org/2000/svg" viewBox="0 0 1440 900" width="1440" height="900"><defs><linearGradient id="bgGrad" x1="0%" y1="0%" x2="100%" y2="100%"><stop offset="0%" stop-color="#0B132B"/><stop offset="100%" stop-color="#1C2541"/></linearGradient></defs><rect width="1440" height="900" fill="url(#bgGrad)"/><g transform="translate(470, 150)"><rect width="500" height="600" rx="16" fill="#091830" stroke="#1E3A8A"/><text x="250" y="80" font-family="Inter, sans-serif" font-size="28" font-weight="800" fill="#FFFFFF" text-anchor="middle">Verify Your Email</text><text x="250" y="110" font-family="Inter, sans-serif" font-size="14" fill="#94A3B8" text-anchor="middle">We sent a 6-digit OTP to rohan@example.com</text><g transform="translate(70, 160)"><rect x="0" y="0" width="50" height="60" rx="8" fill="#0F172A" stroke="#334155"/><text x="25" y="38" font-family="Inter, sans-serif" font-size="24" font-weight="700" fill="#FFFFFF" text-anchor="middle">4</text><rect x="65" y="0" width="50" height="60" rx="8" fill="#0F172A" stroke="#334155"/><text x="90" y="38" font-family="Inter, sans-serif" font-size="24" font-weight="700" fill="#FFFFFF" text-anchor="middle">2</text><rect x="130" y="0" width="50" height="60" rx="8" fill="#0F172A" stroke="#334155"/><text x="155" y="38" font-family="Inter, sans-serif" font-size="24" font-weight="700" fill="#FFFFFF" text-anchor="middle">8</text><rect x="195" y="0" width="50" height="60" rx="8" fill="#0F172A" stroke="#38BDF8" stroke-width="2"/><text x="220" y="38" font-family="Inter, sans-serif" font-size="24" font-weight="700" fill="#FFFFFF" text-anchor="middle">|</text><rect x="260" y="0" width="50" height="60" rx="8" fill="#0F172A" stroke="#334155"/><rect x="325" y="0" width="50" height="60" rx="8" fill="#0F172A" stroke="#334155"/></g><text x="250" y="260" font-family="Inter, sans-serif" font-size="13" fill="#94A3B8" text-anchor="middle">Didn&apos;t receive code? <tspan fill="#38BDF8">Resend in 00:34</tspan></text><g transform="translate(40, 310)"><rect width="420" height="52" rx="8" fill="#FBBF24"/><text x="210" y="32" font-family="Inter, sans-serif" font-size="16" font-weight="700" fill="#000000" text-anchor="middle">Verify &amp; Continue</text></g></g><rect width="1440" height="900" fill="#000000" fill-opacity="0.6"/><g transform="translate(520, 300)"><rect width="400" height="280" rx="16" fill="#091830" stroke="#10B981" stroke-width="2"/><circle cx="200" cy="80" r="32" fill="#10B981" fill-opacity="0.2"/><path d="M185 80 L195 90 L215 70" stroke="#10B981" stroke-width="4" fill="none" stroke-linecap="round" stroke-linejoin="round"/><text x="200" y="145" font-family="Inter, sans-serif" font-size="22" font-weight="800" fill="#FFFFFF" text-anchor="middle">Registration Successful!</text><text x="200" y="175" font-family="Inter, sans-serif" font-size="14" fill="#94A3B8" text-anchor="middle">Welcome aboard, Rohan.</text><text x="200" y="195" font-family="Inter, sans-serif" font-size="14" fill="#94A3B8" text-anchor="middle">Your pilot profile has been created.</text><g transform="translate(100, 220)"><rect width="200" height="40" rx="8" fill="#10B981"/><text x="100" y="25" font-family="Inter, sans-serif" font-size="14" font-weight="700" fill="#FFFFFF" text-anchor="middle">Go to Dashboard</text></g></g></svg>
